M48
INCH
T37C0.020
T36C0.128
T35C0.035
T34C0.129
%
T37
X002650Y015450
X003200Y009000
X004350Y013800
X004700Y013450
X006050Y014550
X006050Y014050
X006600Y009600
X006600Y008400
X008890Y010000
X009500Y014550
X009500Y014000
X009500Y013400
X009500Y012150
X010000Y010000
X010100Y006300
X010100Y005750
X011300Y018550
T35
X011600Y014500
X011600Y013500
X011600Y012500
X011600Y011500
X011600Y009000
X011600Y008000
X011600Y007000
X011600Y006000
X012600Y014000
X012600Y013000
X012600Y012000
X012600Y011000
X012600Y008500
X012600Y007500
X012600Y006500
X012600Y005500
T36
X015100Y015000
X015100Y005000
T34
X001700Y018300
X001700Y001700
X014300Y018300
X014300Y001700
M30
