G04 start of page 2 for group 0 idx 0 *
G04 Title: (unknown), component *
G04 Creator: pcb 4.0.2 *
G04 CreationDate: Wed Oct 14 23:17:38 2020 UTC *
G04 For: ndholmes *
G04 Format: Gerber/RS-274X *
G04 PCB-Dimensions (mil): 1600.00 2000.00 *
G04 PCB-Coordinate-Origin: lower left *
%MOIN*%
%FSLAX25Y25*%
%LNTOP*%
%ADD23C,0.1280*%
%ADD22C,0.0350*%
%ADD21C,0.1285*%
%ADD20C,0.0200*%
%ADD19C,0.0360*%
%ADD18C,0.0600*%
%ADD17C,0.1440*%
%ADD16C,0.0700*%
%ADD15C,0.2937*%
%ADD14C,0.0100*%
%ADD13C,0.0400*%
%ADD12C,0.0250*%
%ADD11C,0.0001*%
G54D11*G36*
X1500Y168000D02*X8500D01*
Y120000D01*
X1500D01*
Y168000D01*
G37*
G36*
X55000Y198000D02*X68500D01*
Y177500D01*
X55000D01*
Y198000D01*
G37*
G54D12*X60100Y105000D02*X65500D01*
X58000Y115000D02*X65600D01*
Y110000D02*X56000D01*
X65600Y105000D02*X73043D01*
X66000Y84000D02*Y99600D01*
G54D13*X73043Y90000D02*Y145043D01*
X73000Y120500D02*X73043Y120543D01*
G54D12*X66000Y99600D02*X65600Y100000D01*
G54D13*X70500Y155000D02*Y147543D01*
X73043Y145000D01*
X60500Y154500D02*Y135157D01*
X58500Y128000D02*X60500Y130000D01*
Y140000D01*
G54D12*X17500Y115000D02*X14500Y118000D01*
Y140000D01*
X20000Y142531D02*X16031D01*
X14500Y141000D01*
Y137500D01*
X20000Y146469D02*X12969D01*
G54D13*X26500Y154500D02*X26843D01*
G54D12*X20000Y154343D02*X26843D01*
X27000Y154500D01*
X12969Y146469D02*X11000Y144500D01*
Y114500D01*
X15500Y110000D01*
X20000Y134657D02*X26657D01*
G54D13*X24843D02*X29843D01*
X44000Y120500D01*
X26843Y154500D02*X53343Y128000D01*
X58500D01*
X44000Y120500D02*X73000D01*
G54D12*X22500Y91500D02*Y95500D01*
X21250Y96750D01*
X16250D01*
G54D13*X32000Y90000D02*X38457D01*
G54D14*Y95543D02*X39500Y94500D01*
G54D12*X16250Y96750D02*X15500Y97500D01*
Y101914D01*
X15414Y102000D01*
X15457Y91500D02*X11000D01*
X9500Y93000D01*
Y109000D01*
G54D14*X38457Y99000D02*Y95543D01*
X39500Y94500D02*X44500D01*
X45500Y93500D01*
Y90043D01*
X45543Y90000D01*
G54D12*X9500Y109000D02*X13000Y112500D01*
X60100Y115000D02*X17500D01*
X15500Y110000D02*X60100D01*
X31500Y105000D02*X28500Y102000D01*
X60500Y105000D02*X31500D01*
X28500Y102000D02*X22500D01*
X45543Y99000D02*Y104957D01*
X45500Y105000D01*
X109000Y68000D02*Y88000D01*
X101000Y76414D02*Y57500D01*
X91500Y64000D02*Y57800D01*
X89000Y84405D02*Y91000D01*
Y72595D02*Y66500D01*
X91500Y64000D01*
X101000Y83500D02*Y91000D01*
X98543Y50957D02*X98500Y51000D01*
X109000Y88000D02*X106000Y91000D01*
X86500D02*X106000D01*
X107750Y89250D01*
X88900Y100000D02*X100000D01*
X107500Y115000D02*X102500Y110000D01*
X94400Y105000D02*X120000D01*
X126000Y110000D02*X121000Y105000D01*
X116000Y115000D02*X107500D01*
X105250Y112750D01*
X87000Y110000D02*X85000Y108000D01*
Y92500D01*
X86500Y91000D01*
X132500Y92500D02*X120000Y105000D01*
X102500Y110000D02*X88900D01*
X90500Y115000D02*X101500D01*
X89500Y110000D02*X87000D01*
G54D13*X87457Y128500D02*Y119457D01*
G54D12*X90500Y115000D02*X87457Y118043D01*
Y122457D01*
Y119000D02*Y117957D01*
G54D13*Y128000D02*Y144043D01*
X85000Y146500D01*
X95000Y121500D02*Y148700D01*
X85000Y146500D02*Y160000D01*
X90500Y165500D01*
X95000Y148700D02*X90500Y153200D01*
G54D12*X104000Y127457D02*Y120500D01*
Y134543D02*Y146000D01*
Y142000D02*Y158000D01*
X101500Y115000D02*X104000Y117500D01*
Y123500D01*
Y127457D02*X107457D01*
X109500Y129500D01*
Y151000D01*
X112500Y154000D01*
G54D13*X90500Y165500D02*Y190800D01*
G54D12*X113000Y185500D02*X119457D01*
X119500Y185543D01*
X104000Y158000D02*X108000Y162000D01*
X115500D01*
X119500Y166000D01*
Y178500D01*
X112500Y154000D02*X133500D01*
X136000Y151500D01*
X122000Y51000D02*X132500Y61500D01*
Y92500D01*
X136000Y151500D02*Y41500D01*
X127000Y32500D01*
X98543Y39000D02*Y50957D01*
X127000Y32500D02*X93000D01*
X91500Y34000D01*
Y38957D01*
X91457Y39000D01*
X109000Y69000D02*Y62000D01*
X111000Y60000D01*
X116000D01*
X91500Y51000D02*X122000D01*
G54D15*X143000Y17000D03*
X17000D03*
G54D16*X126000Y55000D03*
X116000Y60000D03*
X126000Y65000D03*
G54D17*X151000Y50000D03*
G54D15*X143000Y183000D03*
X17000D03*
G54D16*X116000Y70000D03*
X126000Y75000D03*
X116000Y80000D03*
Y90000D03*
Y115000D03*
Y125000D03*
Y135000D03*
Y145000D03*
X126000Y85000D03*
Y110000D03*
Y120000D03*
Y130000D03*
Y140000D03*
G54D17*X151000Y150000D03*
G54D18*X91500Y51000D03*
G54D11*G36*
X88500Y54000D02*Y51000D01*
X94500D01*
Y54000D01*
X88500D01*
G37*
G54D18*X91500Y57800D03*
G54D11*G36*
X88500D02*Y54800D01*
X94500D01*
Y57800D01*
X88500D01*
G37*
G36*
X83686Y75154D02*Y70036D01*
X94314D01*
Y75154D01*
X83686D01*
G37*
G36*
X75602Y92952D02*X70484D01*
Y87048D01*
X75602D01*
Y92952D01*
G37*
G36*
X91500Y101100D02*Y98900D01*
X97300D01*
Y101100D01*
X91500D01*
G37*
G36*
Y106100D02*Y103900D01*
X97300D01*
Y106100D01*
X91500D01*
G37*
G36*
Y111100D02*Y108900D01*
X97300D01*
Y111100D01*
X91500D01*
G37*
G36*
Y116100D02*Y113900D01*
X97300D01*
Y116100D01*
X91500D01*
G37*
G36*
X83686Y86964D02*Y81846D01*
X94314D01*
Y86964D01*
X83686D01*
G37*
G36*
X68516Y92952D02*X63398D01*
Y87048D01*
X68516D01*
Y92952D01*
G37*
G36*
X62700Y111100D02*Y108900D01*
X68500D01*
Y111100D01*
X62700D01*
G37*
G36*
Y106100D02*Y103900D01*
X68500D01*
Y106100D01*
X62700D01*
G37*
G36*
Y101100D02*Y98900D01*
X68500D01*
Y101100D01*
X62700D01*
G37*
G36*
X101102Y41952D02*X95984D01*
Y36048D01*
X101102D01*
Y41952D01*
G37*
G36*
X98048Y78973D02*Y73855D01*
X103952D01*
Y78973D01*
X98048D01*
G37*
G36*
Y86059D02*Y80941D01*
X103952D01*
Y86059D01*
X98048D01*
G37*
G36*
X94016Y41952D02*X88898D01*
Y36048D01*
X94016D01*
Y41952D01*
G37*
G36*
X18016Y94452D02*X12898D01*
Y88548D01*
X18016D01*
Y94452D01*
G37*
G36*
X25102D02*X19984D01*
Y88548D01*
X25102D01*
Y94452D01*
G37*
G36*
X17973Y104952D02*X12855D01*
Y99048D01*
X17973D01*
Y104952D01*
G37*
G36*
X25059D02*X19941D01*
Y99048D01*
X25059D01*
Y104952D01*
G37*
G36*
X48102Y101952D02*X42984D01*
Y96048D01*
X48102D01*
Y101952D01*
G37*
G36*
X41016D02*X35898D01*
Y96048D01*
X41016D01*
Y101952D01*
G37*
G36*
Y92952D02*X35898D01*
Y87048D01*
X41016D01*
Y92952D01*
G37*
G36*
X48102D02*X42984D01*
Y87048D01*
X48102D01*
Y92952D01*
G37*
G36*
X16949Y155524D02*Y153162D01*
X23051D01*
Y155524D01*
X16949D01*
G37*
G36*
Y151587D02*Y149225D01*
X23051D01*
Y151587D01*
X16949D01*
G37*
G36*
Y147650D02*Y145288D01*
X23051D01*
Y147650D01*
X16949D01*
G37*
G36*
Y143712D02*Y141350D01*
X23051D01*
Y143712D01*
X16949D01*
G37*
G36*
Y139775D02*Y137413D01*
X23051D01*
Y139775D01*
X16949D01*
G37*
G36*
Y135838D02*Y133476D01*
X23051D01*
Y135838D01*
X16949D01*
G37*
G36*
X1201Y131901D02*Y127177D01*
X8287D01*
Y131901D01*
X1201D01*
G37*
G36*
X27358Y131150D02*Y124850D01*
X39957D01*
Y131150D01*
X27358D01*
G37*
G36*
X47043D02*Y124850D01*
X59642D01*
Y131150D01*
X47043D01*
G37*
G36*
X1201Y161823D02*Y157099D01*
X8287D01*
Y161823D01*
X1201D01*
G37*
G36*
X63000Y157700D02*X58000D01*
Y147700D01*
X63000D01*
Y157700D01*
G37*
G36*
X62700Y116100D02*Y113900D01*
X68500D01*
Y116100D01*
X62700D01*
G37*
G36*
X73000Y157700D02*X68000D01*
Y147700D01*
X73000D01*
Y157700D01*
G37*
G36*
X90016Y130952D02*X84898D01*
Y125048D01*
X90016D01*
Y130952D01*
G37*
G36*
X97102D02*X91984D01*
Y125048D01*
X97102D01*
Y130952D01*
G37*
G36*
X101048Y130016D02*Y124898D01*
X106952D01*
Y130016D01*
X101048D01*
G37*
G36*
Y137102D02*Y131984D01*
X106952D01*
Y137102D01*
X101048D01*
G37*
G36*
X116548Y188102D02*Y182984D01*
X122452D01*
Y188102D01*
X116548D01*
G37*
G36*
Y181016D02*Y175898D01*
X122452D01*
Y181016D01*
X116548D01*
G37*
G36*
X93000Y157700D02*X88000D01*
Y147700D01*
X93000D01*
Y157700D01*
G37*
G36*
X63000Y195300D02*X58000D01*
Y185300D01*
X63000D01*
Y195300D01*
G37*
G36*
X93000D02*X88000D01*
Y185300D01*
X93000D01*
Y195300D01*
G37*
G54D19*X66000Y96000D03*
Y84000D03*
X95000Y121500D03*
Y134000D03*
X100000Y100000D03*
X88900D03*
X26500Y154500D03*
X32000Y90000D03*
X95000Y145500D03*
X113000Y185500D03*
X95000Y140000D03*
X101000Y63000D03*
Y57500D03*
X60500Y140500D03*
X47000Y134500D03*
X43500Y138000D03*
X60500Y145500D03*
G54D20*G54D21*G54D22*G54D23*G54D21*G54D22*G54D23*M02*
