G04 start of page 12 for group -3984 idx -3984 *
G04 Title: (unknown), fab *
G04 Creator: pcb 4.0.2 *
G04 CreationDate: Thu Jul  2 20:29:10 2020 UTC *
G04 For: ndholmes *
G04 Format: Gerber/RS-274X *
G04 PCB-Dimensions (mil): 3600.00 2000.00 *
G04 PCB-Coordinate-Origin: lower left *
%MOIN*%
%FSLAX25Y25*%
%LNFAB*%
%ADD55C,0.0100*%
%ADD54C,0.0075*%
%ADD53C,0.0060*%
%ADD52R,0.0080X0.0080*%
G54D52*X142200Y183000D02*G75*G03X143800Y183000I800J0D01*G01*
G75*G03X142200Y183000I-800J0D01*G01*
X16200D02*G75*G03X17800Y183000I800J0D01*G01*
G75*G03X16200Y183000I-800J0D01*G01*
X142200Y17000D02*G75*G03X143800Y17000I800J0D01*G01*
G75*G03X142200Y17000I-800J0D01*G01*
X16200D02*G75*G03X17800Y17000I800J0D01*G01*
G75*G03X16200Y17000I-800J0D01*G01*
X14200Y211250D02*G75*G03X15800Y211250I800J0D01*G01*
G75*G03X14200Y211250I-800J0D01*G01*
G54D53*X135000Y213500D02*X136500Y210500D01*
X138000Y213500D01*
X136500Y210500D02*Y207500D01*
X139800Y210800D02*X142050D01*
X139800Y207500D02*X142800D01*
X139800Y213500D02*Y207500D01*
Y213500D02*X142800D01*
X147600D02*X148350Y212750D01*
X145350Y213500D02*X147600D01*
X144600Y212750D02*X145350Y213500D01*
X144600Y212750D02*Y211250D01*
X145350Y210500D01*
X147600D01*
X148350Y209750D01*
Y208250D01*
X147600Y207500D02*X148350Y208250D01*
X145350Y207500D02*X147600D01*
X144600Y208250D02*X145350Y207500D01*
X98000Y209750D02*X101000Y213500D01*
X98000Y209750D02*X101750D01*
X101000Y213500D02*Y207500D01*
X45000Y208250D02*X45750Y207500D01*
X45000Y212750D02*Y208250D01*
Y212750D02*X45750Y213500D01*
X47250D01*
X48000Y212750D01*
Y208250D01*
X47250Y207500D02*X48000Y208250D01*
X45750Y207500D02*X47250D01*
X45000Y209000D02*X48000Y212000D01*
X49800Y207500D02*X50550D01*
X52350Y212300D02*X53550Y213500D01*
Y207500D01*
X52350D02*X54600D01*
X56400Y212750D02*X57150Y213500D01*
X59400D01*
X60150Y212750D01*
Y211250D01*
X56400Y207500D02*X60150Y211250D01*
X56400Y207500D02*X60150D01*
X62700D02*X64950Y210500D01*
Y212750D02*Y210500D01*
X64200Y213500D02*X64950Y212750D01*
X62700Y213500D02*X64200D01*
X61950Y212750D02*X62700Y213500D01*
X61950Y212750D02*Y211250D01*
X62700Y210500D01*
X64950D01*
X149800Y51200D02*X152200Y48800D01*
X149800D02*X152200Y51200D01*
X149800Y151200D02*X152200Y148800D01*
X149800D02*X152200Y151200D01*
X13800Y227450D02*X16200Y225050D01*
X13800D02*X16200Y227450D01*
X135000Y228500D02*X136500Y225500D01*
X138000Y228500D01*
X136500Y225500D02*Y222500D01*
X139800Y225800D02*X142050D01*
X139800Y222500D02*X142800D01*
X139800Y228500D02*Y222500D01*
Y228500D02*X142800D01*
X147600D02*X148350Y227750D01*
X145350Y228500D02*X147600D01*
X144600Y227750D02*X145350Y228500D01*
X144600Y227750D02*Y226250D01*
X145350Y225500D01*
X147600D01*
X148350Y224750D01*
Y223250D01*
X147600Y222500D02*X148350Y223250D01*
X145350Y222500D02*X147600D01*
X144600Y223250D02*X145350Y222500D01*
X98000Y227750D02*X98750Y228500D01*
X101000D01*
X101750Y227750D01*
Y226250D01*
X98000Y222500D02*X101750Y226250D01*
X98000Y222500D02*X101750D01*
X45000Y223250D02*X45750Y222500D01*
X45000Y227750D02*Y223250D01*
Y227750D02*X45750Y228500D01*
X47250D01*
X48000Y227750D01*
Y223250D01*
X47250Y222500D02*X48000Y223250D01*
X45750Y222500D02*X47250D01*
X45000Y224000D02*X48000Y227000D01*
X49800Y222500D02*X50550D01*
X52350Y227300D02*X53550Y228500D01*
Y222500D01*
X52350D02*X54600D01*
X56400Y227750D02*X57150Y228500D01*
X59400D01*
X60150Y227750D01*
Y226250D01*
X56400Y222500D02*X60150Y226250D01*
X56400Y222500D02*X60150D01*
X61950Y223250D02*X62700Y222500D01*
X61950Y224450D02*Y223250D01*
Y224450D02*X63000Y225500D01*
X63900D01*
X64950Y224450D01*
Y223250D01*
X64200Y222500D02*X64950Y223250D01*
X62700Y222500D02*X64200D01*
X61950Y226550D02*X63000Y225500D01*
X61950Y227750D02*Y226550D01*
Y227750D02*X62700Y228500D01*
X64200D01*
X64950Y227750D01*
Y226550D01*
X63900Y225500D02*X64950Y226550D01*
X126000Y56600D02*Y53400D01*
X124400Y55000D02*X127600D01*
X116000Y61600D02*Y58400D01*
X114400Y60000D02*X117600D01*
X126000Y66600D02*Y63400D01*
X124400Y65000D02*X127600D01*
X116000Y71600D02*Y68400D01*
X114400Y70000D02*X117600D01*
X126000Y76600D02*Y73400D01*
X124400Y75000D02*X127600D01*
X116000Y81600D02*Y78400D01*
X114400Y80000D02*X117600D01*
X126000Y86600D02*Y83400D01*
X124400Y85000D02*X127600D01*
X116000Y91600D02*Y88400D01*
X114400Y90000D02*X117600D01*
X126000Y111600D02*Y108400D01*
X124400Y110000D02*X127600D01*
X116000Y116600D02*Y113400D01*
X114400Y115000D02*X117600D01*
X126000Y121600D02*Y118400D01*
X124400Y120000D02*X127600D01*
X116000Y126600D02*Y123400D01*
X114400Y125000D02*X117600D01*
X126000Y131600D02*Y128400D01*
X124400Y130000D02*X127600D01*
X116000Y136600D02*Y133400D01*
X114400Y135000D02*X117600D01*
X126000Y141600D02*Y138400D01*
X124400Y140000D02*X127600D01*
X116000Y146600D02*Y143400D01*
X114400Y145000D02*X117600D01*
X15000Y242850D02*Y239650D01*
X13400Y241250D02*X16600D01*
X135000Y243500D02*X136500Y240500D01*
X138000Y243500D01*
X136500Y240500D02*Y237500D01*
X139800Y240800D02*X142050D01*
X139800Y237500D02*X142800D01*
X139800Y243500D02*Y237500D01*
Y243500D02*X142800D01*
X147600D02*X148350Y242750D01*
X145350Y243500D02*X147600D01*
X144600Y242750D02*X145350Y243500D01*
X144600Y242750D02*Y241250D01*
X145350Y240500D01*
X147600D01*
X148350Y239750D01*
Y238250D01*
X147600Y237500D02*X148350Y238250D01*
X145350Y237500D02*X147600D01*
X144600Y238250D02*X145350Y237500D01*
X98000Y242300D02*X99200Y243500D01*
Y237500D01*
X98000D02*X100250D01*
X104300Y243500D02*X105050Y242750D01*
X102800Y243500D02*X104300D01*
X102050Y242750D02*X102800Y243500D01*
X102050Y242750D02*Y238250D01*
X102800Y237500D01*
X104300Y240800D02*X105050Y240050D01*
X102050Y240800D02*X104300D01*
X102800Y237500D02*X104300D01*
X105050Y238250D01*
Y240050D02*Y238250D01*
X45000D02*X45750Y237500D01*
X45000Y242750D02*Y238250D01*
Y242750D02*X45750Y243500D01*
X47250D01*
X48000Y242750D01*
Y238250D01*
X47250Y237500D02*X48000Y238250D01*
X45750Y237500D02*X47250D01*
X45000Y239000D02*X48000Y242000D01*
X49800Y237500D02*X50550D01*
X52350Y238250D02*X53100Y237500D01*
X52350Y242750D02*Y238250D01*
Y242750D02*X53100Y243500D01*
X54600D01*
X55350Y242750D01*
Y238250D01*
X54600Y237500D02*X55350Y238250D01*
X53100Y237500D02*X54600D01*
X52350Y239000D02*X55350Y242000D01*
X57150Y242750D02*X57900Y243500D01*
X59400D01*
X60150Y242750D01*
X59400Y237500D02*X60150Y238250D01*
X57900Y237500D02*X59400D01*
X57150Y238250D02*X57900Y237500D01*
Y240800D02*X59400D01*
X60150Y242750D02*Y241550D01*
Y240050D02*Y238250D01*
Y240050D02*X59400Y240800D01*
X60150Y241550D02*X59400Y240800D01*
X61950Y243500D02*X64950D01*
X61950D02*Y240500D01*
X62700Y241250D01*
X64200D01*
X64950Y240500D01*
Y238250D01*
X64200Y237500D02*X64950Y238250D01*
X62700Y237500D02*X64200D01*
X61950Y238250D02*X62700Y237500D01*
X26500Y154500D02*Y152900D01*
Y154500D02*X27887Y155300D01*
X26500Y154500D02*X25113Y155300D01*
X66000Y96000D02*Y94400D01*
Y96000D02*X67387Y96800D01*
X66000Y96000D02*X64613Y96800D01*
X66000Y84000D02*Y82400D01*
Y84000D02*X67387Y84800D01*
X66000Y84000D02*X64613Y84800D01*
X95000Y121500D02*Y119900D01*
Y121500D02*X96387Y122300D01*
X95000Y121500D02*X93613Y122300D01*
X95000Y134000D02*Y132400D01*
Y134000D02*X96387Y134800D01*
X95000Y134000D02*X93613Y134800D01*
X100000Y100000D02*Y98400D01*
Y100000D02*X101387Y100800D01*
X100000Y100000D02*X98613Y100800D01*
X88900Y100000D02*Y98400D01*
Y100000D02*X90287Y100800D01*
X88900Y100000D02*X87513Y100800D01*
X95000Y145500D02*Y143900D01*
Y145500D02*X96387Y146300D01*
X95000Y145500D02*X93613Y146300D01*
X95000Y140000D02*Y138400D01*
Y140000D02*X96387Y140800D01*
X95000Y140000D02*X93613Y140800D01*
X60500Y140500D02*Y138900D01*
Y140500D02*X61887Y141300D01*
X60500Y140500D02*X59113Y141300D01*
X60500Y145500D02*Y143900D01*
Y145500D02*X61887Y146300D01*
X60500Y145500D02*X59113Y146300D01*
X32000Y90000D02*Y88400D01*
Y90000D02*X33387Y90800D01*
X32000Y90000D02*X30613Y90800D01*
X47000Y134500D02*Y132900D01*
Y134500D02*X48387Y135300D01*
X47000Y134500D02*X45613Y135300D01*
X43500Y138000D02*Y136400D01*
Y138000D02*X44887Y138800D01*
X43500Y138000D02*X42113Y138800D01*
X113000Y185500D02*Y183900D01*
Y185500D02*X114387Y186300D01*
X113000Y185500D02*X111613Y186300D01*
X15000Y256250D02*Y254650D01*
Y256250D02*X16387Y257050D01*
X15000Y256250D02*X13613Y257050D01*
X135000Y258500D02*X136500Y255500D01*
X138000Y258500D01*
X136500Y255500D02*Y252500D01*
X139800Y255800D02*X142050D01*
X139800Y252500D02*X142800D01*
X139800Y258500D02*Y252500D01*
Y258500D02*X142800D01*
X147600D02*X148350Y257750D01*
X145350Y258500D02*X147600D01*
X144600Y257750D02*X145350Y258500D01*
X144600Y257750D02*Y256250D01*
X145350Y255500D01*
X147600D01*
X148350Y254750D01*
Y253250D01*
X147600Y252500D02*X148350Y253250D01*
X145350Y252500D02*X147600D01*
X144600Y253250D02*X145350Y252500D01*
X98000Y257300D02*X99200Y258500D01*
Y252500D01*
X98000D02*X100250D01*
X102050Y258500D02*X105050D01*
X102050D02*Y255500D01*
X102800Y256250D01*
X104300D01*
X105050Y255500D01*
Y253250D01*
X104300Y252500D02*X105050Y253250D01*
X102800Y252500D02*X104300D01*
X102050Y253250D02*X102800Y252500D01*
X45000Y253250D02*X45750Y252500D01*
X45000Y257750D02*Y253250D01*
Y257750D02*X45750Y258500D01*
X47250D01*
X48000Y257750D01*
Y253250D01*
X47250Y252500D02*X48000Y253250D01*
X45750Y252500D02*X47250D01*
X45000Y254000D02*X48000Y257000D01*
X49800Y252500D02*X50550D01*
X52350Y253250D02*X53100Y252500D01*
X52350Y257750D02*Y253250D01*
Y257750D02*X53100Y258500D01*
X54600D01*
X55350Y257750D01*
Y253250D01*
X54600Y252500D02*X55350Y253250D01*
X53100Y252500D02*X54600D01*
X52350Y254000D02*X55350Y257000D01*
X57150Y257750D02*X57900Y258500D01*
X60150D01*
X60900Y257750D01*
Y256250D01*
X57150Y252500D02*X60900Y256250D01*
X57150Y252500D02*X60900D01*
X62700Y253250D02*X63450Y252500D01*
X62700Y257750D02*Y253250D01*
Y257750D02*X63450Y258500D01*
X64950D01*
X65700Y257750D01*
Y253250D01*
X64950Y252500D02*X65700Y253250D01*
X63450Y252500D02*X64950D01*
X62700Y254000D02*X65700Y257000D01*
X3000Y273500D02*X3750Y272750D01*
X750Y273500D02*X3000D01*
X0Y272750D02*X750Y273500D01*
X0Y272750D02*Y271250D01*
X750Y270500D01*
X3000D01*
X3750Y269750D01*
Y268250D01*
X3000Y267500D02*X3750Y268250D01*
X750Y267500D02*X3000D01*
X0Y268250D02*X750Y267500D01*
X5550Y270500D02*Y268250D01*
X6300Y267500D01*
X8550Y270500D02*Y266000D01*
X7800Y265250D02*X8550Y266000D01*
X6300Y265250D02*X7800D01*
X5550Y266000D02*X6300Y265250D01*
Y267500D02*X7800D01*
X8550Y268250D01*
X11100Y269750D02*Y267500D01*
Y269750D02*X11850Y270500D01*
X12600D01*
X13350Y269750D01*
Y267500D01*
Y269750D02*X14100Y270500D01*
X14850D01*
X15600Y269750D01*
Y267500D01*
X10350Y270500D02*X11100Y269750D01*
X17400Y273500D02*Y267500D01*
Y268250D02*X18150Y267500D01*
X19650D01*
X20400Y268250D01*
Y269750D02*Y268250D01*
X19650Y270500D02*X20400Y269750D01*
X18150Y270500D02*X19650D01*
X17400Y269750D02*X18150Y270500D01*
X22200Y269750D02*Y268250D01*
Y269750D02*X22950Y270500D01*
X24450D01*
X25200Y269750D01*
Y268250D01*
X24450Y267500D02*X25200Y268250D01*
X22950Y267500D02*X24450D01*
X22200Y268250D02*X22950Y267500D01*
X27000Y273500D02*Y268250D01*
X27750Y267500D01*
X0Y264250D02*X29250D01*
X41750Y273500D02*Y267500D01*
X43700Y273500D02*X44750Y272450D01*
Y268550D01*
X43700Y267500D02*X44750Y268550D01*
X41000Y267500D02*X43700D01*
X41000Y273500D02*X43700D01*
G54D54*X46550Y272000D02*Y271850D01*
G54D53*Y269750D02*Y267500D01*
X50300Y270500D02*X51050Y269750D01*
X48800Y270500D02*X50300D01*
X48050Y269750D02*X48800Y270500D01*
X48050Y269750D02*Y268250D01*
X48800Y267500D01*
X51050Y270500D02*Y268250D01*
X51800Y267500D01*
X48800D02*X50300D01*
X51050Y268250D01*
X54350Y269750D02*Y267500D01*
Y269750D02*X55100Y270500D01*
X55850D01*
X56600Y269750D01*
Y267500D01*
Y269750D02*X57350Y270500D01*
X58100D01*
X58850Y269750D01*
Y267500D01*
X53600Y270500D02*X54350Y269750D01*
X60650Y267500D02*X61400D01*
X65900Y268250D02*X66650Y267500D01*
X65900Y272750D02*X66650Y273500D01*
X65900Y272750D02*Y268250D01*
X68450Y273500D02*X69950D01*
X69200D02*Y267500D01*
X68450D02*X69950D01*
X72500Y269750D02*Y267500D01*
Y269750D02*X73250Y270500D01*
X74000D01*
X74750Y269750D01*
Y267500D01*
X71750Y270500D02*X72500Y269750D01*
X77300Y270500D02*X79550D01*
X76550Y269750D02*X77300Y270500D01*
X76550Y269750D02*Y268250D01*
X77300Y267500D01*
X79550D01*
X81350Y273500D02*Y267500D01*
Y269750D02*X82100Y270500D01*
X83600D01*
X84350Y269750D01*
Y267500D01*
X86150Y273500D02*X86900Y272750D01*
Y268250D01*
X86150Y267500D02*X86900Y268250D01*
X41000Y264250D02*X88700D01*
X96050Y267500D02*X98000D01*
X95000Y268550D02*X96050Y267500D01*
X95000Y272450D02*Y268550D01*
Y272450D02*X96050Y273500D01*
X98000D01*
X99800Y269750D02*Y268250D01*
Y269750D02*X100550Y270500D01*
X102050D01*
X102800Y269750D01*
Y268250D01*
X102050Y267500D02*X102800Y268250D01*
X100550Y267500D02*X102050D01*
X99800Y268250D02*X100550Y267500D01*
X104600Y270500D02*Y268250D01*
X105350Y267500D01*
X106850D01*
X107600Y268250D01*
Y270500D02*Y268250D01*
X110150Y269750D02*Y267500D01*
Y269750D02*X110900Y270500D01*
X111650D01*
X112400Y269750D01*
Y267500D01*
X109400Y270500D02*X110150Y269750D01*
X114950Y273500D02*Y268250D01*
X115700Y267500D01*
X114200Y271250D02*X115700D01*
X95000Y264250D02*X117200D01*
X130750Y273500D02*Y267500D01*
X130000Y273500D02*X133000D01*
X133750Y272750D01*
Y271250D01*
X133000Y270500D02*X133750Y271250D01*
X130750Y270500D02*X133000D01*
X135550Y273500D02*Y268250D01*
X136300Y267500D01*
X140050Y270500D02*X140800Y269750D01*
X138550Y270500D02*X140050D01*
X137800Y269750D02*X138550Y270500D01*
X137800Y269750D02*Y268250D01*
X138550Y267500D01*
X140800Y270500D02*Y268250D01*
X141550Y267500D01*
X138550D02*X140050D01*
X140800Y268250D01*
X144100Y273500D02*Y268250D01*
X144850Y267500D01*
X143350Y271250D02*X144850D01*
X147100Y267500D02*X149350D01*
X146350Y268250D02*X147100Y267500D01*
X146350Y269750D02*Y268250D01*
Y269750D02*X147100Y270500D01*
X148600D01*
X149350Y269750D01*
X146350Y269000D02*X149350D01*
Y269750D02*Y269000D01*
X154150Y273500D02*Y267500D01*
X153400D02*X154150Y268250D01*
X151900Y267500D02*X153400D01*
X151150Y268250D02*X151900Y267500D01*
X151150Y269750D02*Y268250D01*
Y269750D02*X151900Y270500D01*
X153400D01*
X154150Y269750D01*
X157450Y270500D02*Y269750D01*
Y268250D02*Y267500D01*
X155950Y272750D02*Y272000D01*
Y272750D02*X156700Y273500D01*
X158200D01*
X158950Y272750D01*
Y272000D01*
X157450Y270500D02*X158950Y272000D01*
X130000Y264250D02*X160750D01*
X0Y288500D02*X3000D01*
X1500D02*Y282500D01*
X4800Y288500D02*Y282500D01*
Y284750D02*X5550Y285500D01*
X7050D01*
X7800Y284750D01*
Y282500D01*
X10350D02*X12600D01*
X9600Y283250D02*X10350Y282500D01*
X9600Y284750D02*Y283250D01*
Y284750D02*X10350Y285500D01*
X11850D01*
X12600Y284750D01*
X9600Y284000D02*X12600D01*
Y284750D02*Y284000D01*
X15150Y284750D02*Y282500D01*
Y284750D02*X15900Y285500D01*
X17400D01*
X14400D02*X15150Y284750D01*
X19950Y282500D02*X22200D01*
X19200Y283250D02*X19950Y282500D01*
X19200Y284750D02*Y283250D01*
Y284750D02*X19950Y285500D01*
X21450D01*
X22200Y284750D01*
X19200Y284000D02*X22200D01*
Y284750D02*Y284000D01*
X28950Y285500D02*X29700Y284750D01*
X27450Y285500D02*X28950D01*
X26700Y284750D02*X27450Y285500D01*
X26700Y284750D02*Y283250D01*
X27450Y282500D01*
X29700Y285500D02*Y283250D01*
X30450Y282500D01*
X27450D02*X28950D01*
X29700Y283250D01*
X33000Y284750D02*Y282500D01*
Y284750D02*X33750Y285500D01*
X35250D01*
X32250D02*X33000Y284750D01*
X37800Y282500D02*X40050D01*
X37050Y283250D02*X37800Y282500D01*
X37050Y284750D02*Y283250D01*
Y284750D02*X37800Y285500D01*
X39300D01*
X40050Y284750D01*
X37050Y284000D02*X40050D01*
Y284750D02*Y284000D01*
X44550Y284750D02*X47550Y288500D01*
X44550Y284750D02*X48300D01*
X47550Y288500D02*Y282500D01*
X55800Y288500D02*Y282500D01*
X55050D02*X55800Y283250D01*
X53550Y282500D02*X55050D01*
X52800Y283250D02*X53550Y282500D01*
X52800Y284750D02*Y283250D01*
Y284750D02*X53550Y285500D01*
X55050D01*
X55800Y284750D01*
G54D54*X57600Y287000D02*Y286850D01*
G54D53*Y284750D02*Y282500D01*
X59850Y287750D02*Y282500D01*
Y287750D02*X60600Y288500D01*
X61350D01*
X59100Y285500D02*X60600D01*
X63600Y287750D02*Y282500D01*
Y287750D02*X64350Y288500D01*
X65100D01*
X62850Y285500D02*X64350D01*
X67350Y282500D02*X69600D01*
X66600Y283250D02*X67350Y282500D01*
X66600Y284750D02*Y283250D01*
Y284750D02*X67350Y285500D01*
X68850D01*
X69600Y284750D01*
X66600Y284000D02*X69600D01*
Y284750D02*Y284000D01*
X72150Y284750D02*Y282500D01*
Y284750D02*X72900Y285500D01*
X74400D01*
X71400D02*X72150Y284750D01*
X76950Y282500D02*X79200D01*
X76200Y283250D02*X76950Y282500D01*
X76200Y284750D02*Y283250D01*
Y284750D02*X76950Y285500D01*
X78450D01*
X79200Y284750D01*
X76200Y284000D02*X79200D01*
Y284750D02*Y284000D01*
X81750Y284750D02*Y282500D01*
Y284750D02*X82500Y285500D01*
X83250D01*
X84000Y284750D01*
Y282500D01*
X81000Y285500D02*X81750Y284750D01*
X86550Y288500D02*Y283250D01*
X87300Y282500D01*
X85800Y286250D02*X87300D01*
X94500Y288500D02*Y282500D01*
X93750D02*X94500Y283250D01*
X92250Y282500D02*X93750D01*
X91500Y283250D02*X92250Y282500D01*
X91500Y284750D02*Y283250D01*
Y284750D02*X92250Y285500D01*
X93750D01*
X94500Y284750D01*
X97050D02*Y282500D01*
Y284750D02*X97800Y285500D01*
X99300D01*
X96300D02*X97050Y284750D01*
G54D54*X101100Y287000D02*Y286850D01*
G54D53*Y284750D02*Y282500D01*
X102600Y288500D02*Y283250D01*
X103350Y282500D01*
X104850Y288500D02*Y283250D01*
X105600Y282500D01*
X110550D02*X112800D01*
X113550Y283250D01*
X112800Y284000D02*X113550Y283250D01*
X110550Y284000D02*X112800D01*
X109800Y284750D02*X110550Y284000D01*
X109800Y284750D02*X110550Y285500D01*
X112800D01*
X113550Y284750D01*
X109800Y283250D02*X110550Y282500D01*
G54D54*X115350Y287000D02*Y286850D01*
G54D53*Y284750D02*Y282500D01*
X116850Y285500D02*X119850D01*
X116850Y282500D02*X119850Y285500D01*
X116850Y282500D02*X119850D01*
X122400D02*X124650D01*
X121650Y283250D02*X122400Y282500D01*
X121650Y284750D02*Y283250D01*
Y284750D02*X122400Y285500D01*
X123900D01*
X124650Y284750D01*
X121650Y284000D02*X124650D01*
Y284750D02*Y284000D01*
X127200Y282500D02*X129450D01*
X130200Y283250D01*
X129450Y284000D02*X130200Y283250D01*
X127200Y284000D02*X129450D01*
X126450Y284750D02*X127200Y284000D01*
X126450Y284750D02*X127200Y285500D01*
X129450D01*
X130200Y284750D01*
X126450Y283250D02*X127200Y282500D01*
X134700Y285500D02*Y283250D01*
X135450Y282500D01*
X136950D01*
X137700Y283250D01*
Y285500D02*Y283250D01*
X140250Y282500D02*X142500D01*
X143250Y283250D01*
X142500Y284000D02*X143250Y283250D01*
X140250Y284000D02*X142500D01*
X139500Y284750D02*X140250Y284000D01*
X139500Y284750D02*X140250Y285500D01*
X142500D01*
X143250Y284750D01*
X139500Y283250D02*X140250Y282500D01*
X145800D02*X148050D01*
X145050Y283250D02*X145800Y282500D01*
X145050Y284750D02*Y283250D01*
Y284750D02*X145800Y285500D01*
X147300D01*
X148050Y284750D01*
X145050Y284000D02*X148050D01*
Y284750D02*Y284000D01*
X152850Y288500D02*Y282500D01*
X152100D02*X152850Y283250D01*
X150600Y282500D02*X152100D01*
X149850Y283250D02*X150600Y282500D01*
X149850Y284750D02*Y283250D01*
Y284750D02*X150600Y285500D01*
X152100D01*
X152850Y284750D01*
G54D54*X157350Y287000D02*Y286850D01*
G54D53*Y284750D02*Y282500D01*
X159600Y284750D02*Y282500D01*
Y284750D02*X160350Y285500D01*
X161100D01*
X161850Y284750D01*
Y282500D01*
X158850Y285500D02*X159600Y284750D01*
X167100Y288500D02*Y283250D01*
X167850Y282500D01*
X166350Y286250D02*X167850D01*
X169350Y288500D02*Y282500D01*
Y284750D02*X170100Y285500D01*
X171600D01*
X172350Y284750D01*
Y282500D01*
G54D54*X174150Y287000D02*Y286850D01*
G54D53*Y284750D02*Y282500D01*
X176400D02*X178650D01*
X179400Y283250D01*
X178650Y284000D02*X179400Y283250D01*
X176400Y284000D02*X178650D01*
X175650Y284750D02*X176400Y284000D01*
X175650Y284750D02*X176400Y285500D01*
X178650D01*
X179400Y284750D01*
X175650Y283250D02*X176400Y282500D01*
X183900Y288500D02*Y283250D01*
X184650Y282500D01*
X188400Y285500D02*X189150Y284750D01*
X186900Y285500D02*X188400D01*
X186150Y284750D02*X186900Y285500D01*
X186150Y284750D02*Y283250D01*
X186900Y282500D01*
X189150Y285500D02*Y283250D01*
X189900Y282500D01*
X186900D02*X188400D01*
X189150Y283250D01*
X191700Y285500D02*Y283250D01*
X192450Y282500D01*
X194700Y285500D02*Y281000D01*
X193950Y280250D02*X194700Y281000D01*
X192450Y280250D02*X193950D01*
X191700Y281000D02*X192450Y280250D01*
Y282500D02*X193950D01*
X194700Y283250D01*
X196500Y284750D02*Y283250D01*
Y284750D02*X197250Y285500D01*
X198750D01*
X199500Y284750D01*
Y283250D01*
X198750Y282500D02*X199500Y283250D01*
X197250Y282500D02*X198750D01*
X196500Y283250D02*X197250Y282500D01*
X201300Y285500D02*Y283250D01*
X202050Y282500D01*
X203550D01*
X204300Y283250D01*
Y285500D02*Y283250D01*
X206850Y288500D02*Y283250D01*
X207600Y282500D01*
X206100Y286250D02*X207600D01*
X209100Y281000D02*X210600Y282500D01*
X215100Y287750D02*X215850Y288500D01*
X217350D01*
X218100Y287750D01*
X217350Y282500D02*X218100Y283250D01*
X215850Y282500D02*X217350D01*
X215100Y283250D02*X215850Y282500D01*
Y285800D02*X217350D01*
X218100Y287750D02*Y286550D01*
Y285050D02*Y283250D01*
Y285050D02*X217350Y285800D01*
X218100Y286550D02*X217350Y285800D01*
X220650Y282500D02*X223650Y288500D01*
X219900D02*X223650D01*
X228150D02*Y282500D01*
Y284750D02*X228900Y285500D01*
X230400D01*
X231150Y284750D01*
Y282500D01*
X232950Y284750D02*Y283250D01*
Y284750D02*X233700Y285500D01*
X235200D01*
X235950Y284750D01*
Y283250D01*
X235200Y282500D02*X235950Y283250D01*
X233700Y282500D02*X235200D01*
X232950Y283250D02*X233700Y282500D01*
X237750Y288500D02*Y283250D01*
X238500Y282500D01*
X240750D02*X243000D01*
X240000Y283250D02*X240750Y282500D01*
X240000Y284750D02*Y283250D01*
Y284750D02*X240750Y285500D01*
X242250D01*
X243000Y284750D01*
X240000Y284000D02*X243000D01*
Y284750D02*Y284000D01*
X245550Y282500D02*X247800D01*
X248550Y283250D01*
X247800Y284000D02*X248550Y283250D01*
X245550Y284000D02*X247800D01*
X244800Y284750D02*X245550Y284000D01*
X244800Y284750D02*X245550Y285500D01*
X247800D01*
X248550Y284750D01*
X244800Y283250D02*X245550Y282500D01*
X253800Y288500D02*Y283250D01*
X254550Y282500D01*
X253050Y286250D02*X254550D01*
X256050Y284750D02*Y283250D01*
Y284750D02*X256800Y285500D01*
X258300D01*
X259050Y284750D01*
Y283250D01*
X258300Y282500D02*X259050Y283250D01*
X256800Y282500D02*X258300D01*
X256050Y283250D02*X256800Y282500D01*
X261600Y288500D02*Y283250D01*
X262350Y282500D01*
X260850Y286250D02*X262350D01*
X266100Y285500D02*X266850Y284750D01*
X264600Y285500D02*X266100D01*
X263850Y284750D02*X264600Y285500D01*
X263850Y284750D02*Y283250D01*
X264600Y282500D01*
X266850Y285500D02*Y283250D01*
X267600Y282500D01*
X264600D02*X266100D01*
X266850Y283250D01*
X269400Y288500D02*Y283250D01*
X270150Y282500D01*
G54D55*X0Y200000D02*X160000D01*
Y0D01*
X0D01*
Y200000D01*
G54D53*X93675Y-9500D02*X96675D01*
X97425Y-8750D01*
Y-6950D02*Y-8750D01*
X96675Y-6200D02*X97425Y-6950D01*
X94425Y-6200D02*X96675D01*
X94425Y-3500D02*Y-9500D01*
X93675Y-3500D02*X96675D01*
X97425Y-4250D01*
Y-5450D01*
X96675Y-6200D02*X97425Y-5450D01*
X99225Y-7250D02*Y-8750D01*
Y-7250D02*X99975Y-6500D01*
X101475D01*
X102225Y-7250D01*
Y-8750D01*
X101475Y-9500D02*X102225Y-8750D01*
X99975Y-9500D02*X101475D01*
X99225Y-8750D02*X99975Y-9500D01*
X106275Y-6500D02*X107025Y-7250D01*
X104775Y-6500D02*X106275D01*
X104025Y-7250D02*X104775Y-6500D01*
X104025Y-7250D02*Y-8750D01*
X104775Y-9500D01*
X107025Y-6500D02*Y-8750D01*
X107775Y-9500D01*
X104775D02*X106275D01*
X107025Y-8750D01*
X110325Y-7250D02*Y-9500D01*
Y-7250D02*X111075Y-6500D01*
X112575D01*
X109575D02*X110325Y-7250D01*
X117375Y-3500D02*Y-9500D01*
X116625D02*X117375Y-8750D01*
X115125Y-9500D02*X116625D01*
X114375Y-8750D02*X115125Y-9500D01*
X114375Y-7250D02*Y-8750D01*
Y-7250D02*X115125Y-6500D01*
X116625D01*
X117375Y-7250D01*
X121875D02*Y-8750D01*
Y-7250D02*X122625Y-6500D01*
X124125D01*
X124875Y-7250D01*
Y-8750D01*
X124125Y-9500D02*X124875Y-8750D01*
X122625Y-9500D02*X124125D01*
X121875Y-8750D02*X122625Y-9500D01*
X126675Y-6500D02*Y-8750D01*
X127425Y-9500D01*
X128925D01*
X129675Y-8750D01*
Y-6500D02*Y-8750D01*
X132225Y-3500D02*Y-8750D01*
X132975Y-9500D01*
X131475Y-5750D02*X132975D01*
X134475Y-3500D02*Y-8750D01*
X135225Y-9500D01*
G54D54*X136725Y-5000D02*Y-5150D01*
G54D53*Y-7250D02*Y-9500D01*
X138975Y-7250D02*Y-9500D01*
Y-7250D02*X139725Y-6500D01*
X140475D01*
X141225Y-7250D01*
Y-9500D01*
X138225Y-6500D02*X138975Y-7250D01*
X143775Y-9500D02*X146025D01*
X143025Y-8750D02*X143775Y-9500D01*
X143025Y-7250D02*Y-8750D01*
Y-7250D02*X143775Y-6500D01*
X145275D01*
X146025Y-7250D01*
X143025Y-8000D02*X146025D01*
Y-7250D02*Y-8000D01*
G54D54*X150525Y-5000D02*Y-5150D01*
G54D53*Y-7250D02*Y-9500D01*
X152775D02*X155025D01*
X155775Y-8750D01*
X155025Y-8000D02*X155775Y-8750D01*
X152775Y-8000D02*X155025D01*
X152025Y-7250D02*X152775Y-8000D01*
X152025Y-7250D02*X152775Y-6500D01*
X155025D01*
X155775Y-7250D01*
X152025Y-8750D02*X152775Y-9500D01*
X161025Y-3500D02*Y-8750D01*
X161775Y-9500D01*
X160275Y-5750D02*X161775D01*
X163275Y-3500D02*Y-9500D01*
Y-7250D02*X164025Y-6500D01*
X165525D01*
X166275Y-7250D01*
Y-9500D01*
X168825D02*X171075D01*
X168075Y-8750D02*X168825Y-9500D01*
X168075Y-7250D02*Y-8750D01*
Y-7250D02*X168825Y-6500D01*
X170325D01*
X171075Y-7250D01*
X168075Y-8000D02*X171075D01*
Y-7250D02*Y-8000D01*
X176325Y-6500D02*X178575D01*
X175575Y-7250D02*X176325Y-6500D01*
X175575Y-7250D02*Y-8750D01*
X176325Y-9500D01*
X178575D01*
X181125D02*X183375D01*
X180375Y-8750D02*X181125Y-9500D01*
X180375Y-7250D02*Y-8750D01*
Y-7250D02*X181125Y-6500D01*
X182625D01*
X183375Y-7250D01*
X180375Y-8000D02*X183375D01*
Y-7250D02*Y-8000D01*
X185925Y-7250D02*Y-9500D01*
Y-7250D02*X186675Y-6500D01*
X187425D01*
X188175Y-7250D01*
Y-9500D01*
X185175Y-6500D02*X185925Y-7250D01*
X190725Y-3500D02*Y-8750D01*
X191475Y-9500D01*
X189975Y-5750D02*X191475D01*
X193725Y-9500D02*X195975D01*
X192975Y-8750D02*X193725Y-9500D01*
X192975Y-7250D02*Y-8750D01*
Y-7250D02*X193725Y-6500D01*
X195225D01*
X195975Y-7250D01*
X192975Y-8000D02*X195975D01*
Y-7250D02*Y-8000D01*
X198525Y-7250D02*Y-9500D01*
Y-7250D02*X199275Y-6500D01*
X200775D01*
X197775D02*X198525Y-7250D01*
X202575Y-3500D02*Y-8750D01*
X203325Y-9500D01*
G54D54*X204825Y-5000D02*Y-5150D01*
G54D53*Y-7250D02*Y-9500D01*
X207075Y-7250D02*Y-9500D01*
Y-7250D02*X207825Y-6500D01*
X208575D01*
X209325Y-7250D01*
Y-9500D01*
X206325Y-6500D02*X207075Y-7250D01*
X211875Y-9500D02*X214125D01*
X211125Y-8750D02*X211875Y-9500D01*
X211125Y-7250D02*Y-8750D01*
Y-7250D02*X211875Y-6500D01*
X213375D01*
X214125Y-7250D01*
X211125Y-8000D02*X214125D01*
Y-7250D02*Y-8000D01*
X218625Y-7250D02*Y-8750D01*
Y-7250D02*X219375Y-6500D01*
X220875D01*
X221625Y-7250D01*
Y-8750D01*
X220875Y-9500D02*X221625Y-8750D01*
X219375Y-9500D02*X220875D01*
X218625Y-8750D02*X219375Y-9500D01*
X224175Y-4250D02*Y-9500D01*
Y-4250D02*X224925Y-3500D01*
X225675D01*
X223425Y-6500D02*X224925D01*
X230625Y-3500D02*Y-8750D01*
X231375Y-9500D01*
X229875Y-5750D02*X231375D01*
X232875Y-3500D02*Y-9500D01*
Y-7250D02*X233625Y-6500D01*
X235125D01*
X235875Y-7250D01*
Y-9500D01*
G54D54*X237675Y-5000D02*Y-5150D01*
G54D53*Y-7250D02*Y-9500D01*
X239925D02*X242175D01*
X242925Y-8750D01*
X242175Y-8000D02*X242925Y-8750D01*
X239925Y-8000D02*X242175D01*
X239175Y-7250D02*X239925Y-8000D01*
X239175Y-7250D02*X239925Y-6500D01*
X242175D01*
X242925Y-7250D01*
X239175Y-8750D02*X239925Y-9500D01*
X248175Y-7250D02*Y-11750D01*
X247425Y-6500D02*X248175Y-7250D01*
X248925Y-6500D01*
X250425D01*
X251175Y-7250D01*
Y-8750D01*
X250425Y-9500D02*X251175Y-8750D01*
X248925Y-9500D02*X250425D01*
X248175Y-8750D02*X248925Y-9500D01*
X255225Y-6500D02*X255975Y-7250D01*
X253725Y-6500D02*X255225D01*
X252975Y-7250D02*X253725Y-6500D01*
X252975Y-7250D02*Y-8750D01*
X253725Y-9500D01*
X255975Y-6500D02*Y-8750D01*
X256725Y-9500D01*
X253725D02*X255225D01*
X255975Y-8750D01*
X259275Y-3500D02*Y-8750D01*
X260025Y-9500D01*
X258525Y-5750D02*X260025D01*
X261525Y-3500D02*Y-9500D01*
Y-7250D02*X262275Y-6500D01*
X263775D01*
X264525Y-7250D01*
Y-9500D01*
X200750Y228500D02*Y222500D01*
X202700Y228500D02*X203750Y227450D01*
Y223550D01*
X202700Y222500D02*X203750Y223550D01*
X200000Y222500D02*X202700D01*
X200000Y228500D02*X202700D01*
X207800Y225500D02*X208550Y224750D01*
X206300Y225500D02*X207800D01*
X205550Y224750D02*X206300Y225500D01*
X205550Y224750D02*Y223250D01*
X206300Y222500D01*
X208550Y225500D02*Y223250D01*
X209300Y222500D01*
X206300D02*X207800D01*
X208550Y223250D01*
X211850Y228500D02*Y223250D01*
X212600Y222500D01*
X211100Y226250D02*X212600D01*
X214850Y222500D02*X217100D01*
X214100Y223250D02*X214850Y222500D01*
X214100Y224750D02*Y223250D01*
Y224750D02*X214850Y225500D01*
X216350D01*
X217100Y224750D01*
X214100Y224000D02*X217100D01*
Y224750D02*Y224000D01*
X218900Y226250D02*X219650D01*
X218900Y224750D02*X219650D01*
X224150Y228500D02*X227150D01*
X225650D02*Y222500D01*
X228950Y228500D02*Y222500D01*
Y224750D02*X229700Y225500D01*
X231200D01*
X231950Y224750D01*
Y222500D01*
X233750Y225500D02*Y223250D01*
X234500Y222500D01*
X236000D01*
X236750Y223250D01*
Y225500D02*Y223250D01*
X242300Y228500D02*X243500D01*
Y223250D01*
X242750Y222500D02*X243500Y223250D01*
X242000Y222500D02*X242750D01*
X241250Y223250D02*X242000Y222500D01*
X241250Y224000D02*Y223250D01*
X245300Y225500D02*Y223250D01*
X246050Y222500D01*
X247550D01*
X248300Y223250D01*
Y225500D02*Y223250D01*
X250100Y228500D02*Y223250D01*
X250850Y222500D01*
X257750Y227750D02*X258500Y228500D01*
X260750D01*
X261500Y227750D01*
Y226250D01*
X257750Y222500D02*X261500Y226250D01*
X257750Y222500D02*X261500D01*
X266000Y227750D02*X266750Y228500D01*
X269000D01*
X269750Y227750D01*
Y226250D01*
X266000Y222500D02*X269750Y226250D01*
X266000Y222500D02*X269750D01*
X271550Y223250D02*X272300Y222500D01*
X271550Y227750D02*Y223250D01*
Y227750D02*X272300Y228500D01*
X273800D01*
X274550Y227750D01*
Y223250D01*
X273800Y222500D02*X274550Y223250D01*
X272300Y222500D02*X273800D01*
X271550Y224000D02*X274550Y227000D01*
X276350Y226250D02*X277100D01*
X276350Y224750D02*X277100D01*
X278900Y227750D02*X279650Y228500D01*
X281900D01*
X282650Y227750D01*
Y226250D01*
X278900Y222500D02*X282650Y226250D01*
X278900Y222500D02*X282650D01*
X285200D02*X287450Y225500D01*
Y227750D02*Y225500D01*
X286700Y228500D02*X287450Y227750D01*
X285200Y228500D02*X286700D01*
X284450Y227750D02*X285200Y228500D01*
X284450Y227750D02*Y226250D01*
X285200Y225500D01*
X287450D01*
X289250Y226250D02*X290000D01*
X289250Y224750D02*X290000D01*
X291800Y227300D02*X293000Y228500D01*
Y222500D01*
X291800D02*X294050D01*
X295850Y223250D02*X296600Y222500D01*
X295850Y227750D02*Y223250D01*
Y227750D02*X296600Y228500D01*
X298100D01*
X298850Y227750D01*
Y223250D01*
X298100Y222500D02*X298850Y223250D01*
X296600Y222500D02*X298100D01*
X295850Y224000D02*X298850Y227000D01*
X303350Y227750D02*X304100Y228500D01*
X306350D01*
X307100Y227750D01*
Y226250D01*
X303350Y222500D02*X307100Y226250D01*
X303350Y222500D02*X307100D01*
X308900Y223250D02*X309650Y222500D01*
X308900Y227750D02*Y223250D01*
Y227750D02*X309650Y228500D01*
X311150D01*
X311900Y227750D01*
Y223250D01*
X311150Y222500D02*X311900Y223250D01*
X309650Y222500D02*X311150D01*
X308900Y224000D02*X311900Y227000D01*
X313700Y227750D02*X314450Y228500D01*
X316700D01*
X317450Y227750D01*
Y226250D01*
X313700Y222500D02*X317450Y226250D01*
X313700Y222500D02*X317450D01*
X319250Y223250D02*X320000Y222500D01*
X319250Y227750D02*Y223250D01*
Y227750D02*X320000Y228500D01*
X321500D01*
X322250Y227750D01*
Y223250D01*
X321500Y222500D02*X322250Y223250D01*
X320000Y222500D02*X321500D01*
X319250Y224000D02*X322250Y227000D01*
X326750Y228500D02*Y223250D01*
X327500Y222500D01*
X329000D01*
X329750Y223250D01*
Y228500D02*Y223250D01*
X331550Y228500D02*X334550D01*
X333050D02*Y222500D01*
X337400D02*X339350D01*
X336350Y223550D02*X337400Y222500D01*
X336350Y227450D02*Y223550D01*
Y227450D02*X337400Y228500D01*
X339350D01*
X200000Y242000D02*Y237500D01*
Y242000D02*X201050Y243500D01*
X202700D01*
X203750Y242000D01*
Y237500D01*
X200000Y240500D02*X203750D01*
X205550D02*Y238250D01*
X206300Y237500D01*
X207800D01*
X208550Y238250D01*
Y240500D02*Y238250D01*
X211100Y243500D02*Y238250D01*
X211850Y237500D01*
X210350Y241250D02*X211850D01*
X213350Y243500D02*Y237500D01*
Y239750D02*X214100Y240500D01*
X215600D01*
X216350Y239750D01*
Y237500D01*
X218150Y239750D02*Y238250D01*
Y239750D02*X218900Y240500D01*
X220400D01*
X221150Y239750D01*
Y238250D01*
X220400Y237500D02*X221150Y238250D01*
X218900Y237500D02*X220400D01*
X218150Y238250D02*X218900Y237500D01*
X223700Y239750D02*Y237500D01*
Y239750D02*X224450Y240500D01*
X225950D01*
X222950D02*X223700Y239750D01*
X227750Y241250D02*X228500D01*
X227750Y239750D02*X228500D01*
X233000Y243500D02*Y237500D01*
Y243500D02*X236750Y237500D01*
Y243500D02*Y237500D01*
X240800Y240500D02*X241550Y239750D01*
X239300Y240500D02*X240800D01*
X238550Y239750D02*X239300Y240500D01*
X238550Y239750D02*Y238250D01*
X239300Y237500D01*
X241550Y240500D02*Y238250D01*
X242300Y237500D01*
X239300D02*X240800D01*
X241550Y238250D01*
X244850Y243500D02*Y238250D01*
X245600Y237500D01*
X244100Y241250D02*X245600D01*
X247100Y243500D02*Y237500D01*
Y239750D02*X247850Y240500D01*
X249350D01*
X250100Y239750D01*
Y237500D01*
X254150Y240500D02*X254900Y239750D01*
X252650Y240500D02*X254150D01*
X251900Y239750D02*X252650Y240500D01*
X251900Y239750D02*Y238250D01*
X252650Y237500D01*
X254900Y240500D02*Y238250D01*
X255650Y237500D01*
X252650D02*X254150D01*
X254900Y238250D01*
X258200Y239750D02*Y237500D01*
Y239750D02*X258950Y240500D01*
X259700D01*
X260450Y239750D01*
Y237500D01*
X257450Y240500D02*X258200Y239750D01*
X265700Y243500D02*Y237500D01*
X267650Y243500D02*X268700Y242450D01*
Y238550D01*
X267650Y237500D02*X268700Y238550D01*
X264950Y237500D02*X267650D01*
X264950Y243500D02*X267650D01*
X270500Y237500D02*X271250D01*
X275750Y243500D02*Y237500D01*
X279500Y243500D02*Y237500D01*
X275750Y240500D02*X279500D01*
X281300Y239750D02*Y238250D01*
Y239750D02*X282050Y240500D01*
X283550D01*
X284300Y239750D01*
Y238250D01*
X283550Y237500D02*X284300Y238250D01*
X282050Y237500D02*X283550D01*
X281300Y238250D02*X282050Y237500D01*
X286100Y243500D02*Y238250D01*
X286850Y237500D01*
X289100Y239750D02*Y237500D01*
Y239750D02*X289850Y240500D01*
X290600D01*
X291350Y239750D01*
Y237500D01*
Y239750D02*X292100Y240500D01*
X292850D01*
X293600Y239750D01*
Y237500D01*
X288350Y240500D02*X289100Y239750D01*
X296150Y237500D02*X298400D01*
X295400Y238250D02*X296150Y237500D01*
X295400Y239750D02*Y238250D01*
Y239750D02*X296150Y240500D01*
X297650D01*
X298400Y239750D01*
X295400Y239000D02*X298400D01*
Y239750D02*Y239000D01*
X300950Y237500D02*X303200D01*
X303950Y238250D01*
X303200Y239000D02*X303950Y238250D01*
X300950Y239000D02*X303200D01*
X300200Y239750D02*X300950Y239000D01*
X300200Y239750D02*X300950Y240500D01*
X303200D01*
X303950Y239750D01*
X300200Y238250D02*X300950Y237500D01*
X200000Y258500D02*X203000D01*
X201500D02*Y252500D01*
G54D54*X204800Y257000D02*Y256850D01*
G54D53*Y254750D02*Y252500D01*
X207050Y258500D02*Y253250D01*
X207800Y252500D01*
X206300Y256250D02*X207800D01*
X209300Y258500D02*Y253250D01*
X210050Y252500D01*
X212300D02*X214550D01*
X211550Y253250D02*X212300Y252500D01*
X211550Y254750D02*Y253250D01*
Y254750D02*X212300Y255500D01*
X213800D01*
X214550Y254750D01*
X211550Y254000D02*X214550D01*
Y254750D02*Y254000D01*
X216350Y256250D02*X217100D01*
X216350Y254750D02*X217100D01*
X221600Y253250D02*X222350Y252500D01*
X221600Y257750D02*X222350Y258500D01*
X221600Y257750D02*Y253250D01*
X224150Y255500D02*Y253250D01*
X224900Y252500D01*
X226400D01*
X227150Y253250D01*
Y255500D02*Y253250D01*
X229700Y254750D02*Y252500D01*
Y254750D02*X230450Y255500D01*
X231200D01*
X231950Y254750D01*
Y252500D01*
X228950Y255500D02*X229700Y254750D01*
X233750Y258500D02*Y252500D01*
Y254750D02*X236000Y252500D01*
X233750Y254750D02*X235250Y256250D01*
X238550Y254750D02*Y252500D01*
Y254750D02*X239300Y255500D01*
X240050D01*
X240800Y254750D01*
Y252500D01*
X237800Y255500D02*X238550Y254750D01*
X242600D02*Y253250D01*
Y254750D02*X243350Y255500D01*
X244850D01*
X245600Y254750D01*
Y253250D01*
X244850Y252500D02*X245600Y253250D01*
X243350Y252500D02*X244850D01*
X242600Y253250D02*X243350Y252500D01*
X247400Y255500D02*Y253250D01*
X248150Y252500D01*
X248900D01*
X249650Y253250D01*
Y255500D02*Y253250D01*
X250400Y252500D01*
X251150D01*
X251900Y253250D01*
Y255500D02*Y253250D01*
X254450Y254750D02*Y252500D01*
Y254750D02*X255200Y255500D01*
X255950D01*
X256700Y254750D01*
Y252500D01*
X253700Y255500D02*X254450Y254750D01*
X258500Y258500D02*X259250Y257750D01*
Y253250D01*
X258500Y252500D02*X259250Y253250D01*
X263750Y255500D02*X266750D01*
X271250Y258500D02*Y252500D01*
Y258500D02*X274250D01*
X271250Y255800D02*X273500D01*
X278300Y255500D02*X279050Y254750D01*
X276800Y255500D02*X278300D01*
X276050Y254750D02*X276800Y255500D01*
X276050Y254750D02*Y253250D01*
X276800Y252500D01*
X279050Y255500D02*Y253250D01*
X279800Y252500D01*
X276800D02*X278300D01*
X279050Y253250D01*
X281600Y258500D02*Y252500D01*
Y253250D02*X282350Y252500D01*
X283850D01*
X284600Y253250D01*
Y254750D02*Y253250D01*
X283850Y255500D02*X284600Y254750D01*
X282350Y255500D02*X283850D01*
X281600Y254750D02*X282350Y255500D01*
X287150Y254750D02*Y252500D01*
Y254750D02*X287900Y255500D01*
X289400D01*
X286400D02*X287150Y254750D01*
G54D54*X291200Y257000D02*Y256850D01*
G54D53*Y254750D02*Y252500D01*
X293450Y255500D02*X295700D01*
X292700Y254750D02*X293450Y255500D01*
X292700Y254750D02*Y253250D01*
X293450Y252500D01*
X295700D01*
X299750Y255500D02*X300500Y254750D01*
X298250Y255500D02*X299750D01*
X297500Y254750D02*X298250Y255500D01*
X297500Y254750D02*Y253250D01*
X298250Y252500D01*
X300500Y255500D02*Y253250D01*
X301250Y252500D01*
X298250D02*X299750D01*
X300500Y253250D01*
X303800Y258500D02*Y253250D01*
X304550Y252500D01*
X303050Y256250D02*X304550D01*
G54D54*X306050Y257000D02*Y256850D01*
G54D53*Y254750D02*Y252500D01*
X307550Y254750D02*Y253250D01*
Y254750D02*X308300Y255500D01*
X309800D01*
X310550Y254750D01*
Y253250D01*
X309800Y252500D02*X310550Y253250D01*
X308300Y252500D02*X309800D01*
X307550Y253250D02*X308300Y252500D01*
X313100Y254750D02*Y252500D01*
Y254750D02*X313850Y255500D01*
X314600D01*
X315350Y254750D01*
Y252500D01*
X312350Y255500D02*X313100Y254750D01*
X320600Y258500D02*Y252500D01*
X322550Y258500D02*X323600Y257450D01*
Y253550D01*
X322550Y252500D02*X323600Y253550D01*
X319850Y252500D02*X322550D01*
X319850Y258500D02*X322550D01*
X326150Y254750D02*Y252500D01*
Y254750D02*X326900Y255500D01*
X328400D01*
X325400D02*X326150Y254750D01*
X332450Y255500D02*X333200Y254750D01*
X330950Y255500D02*X332450D01*
X330200Y254750D02*X330950Y255500D01*
X330200Y254750D02*Y253250D01*
X330950Y252500D01*
X333200Y255500D02*Y253250D01*
X333950Y252500D01*
X330950D02*X332450D01*
X333200Y253250D01*
X335750Y255500D02*Y253250D01*
X336500Y252500D01*
X337250D01*
X338000Y253250D01*
Y255500D02*Y253250D01*
X338750Y252500D01*
X339500D01*
X340250Y253250D01*
Y255500D02*Y253250D01*
G54D54*X342050Y257000D02*Y256850D01*
G54D53*Y254750D02*Y252500D01*
X344300Y254750D02*Y252500D01*
Y254750D02*X345050Y255500D01*
X345800D01*
X346550Y254750D01*
Y252500D01*
X343550Y255500D02*X344300Y254750D01*
X350600Y255500D02*X351350Y254750D01*
X349100Y255500D02*X350600D01*
X348350Y254750D02*X349100Y255500D01*
X348350Y254750D02*Y253250D01*
X349100Y252500D01*
X350600D01*
X351350Y253250D01*
X348350Y251000D02*X349100Y250250D01*
X350600D01*
X351350Y251000D01*
Y255500D02*Y251000D01*
M02*
